<svg width="155" height="50" viewBox="0 0 155 50" fill="none" xmlns="http://www.w3.org/2000/svg">
<path d="M71.0025 13.67C68.1 12.08 64.8575 11.2825 61.2125 11.2825C57.5625 11.2825 54.255 12.08 51.3525 13.67C48.5136 15.2202 46.1723 17.5433 44.6 20.37C42.9775 23.2225 42.1675 26.4725 42.1675 30.12C42.1675 33.7025 42.9775 36.955 44.6 39.805C46.22 42.6575 48.45 44.8475 51.35 46.505C54.255 48.0975 57.565 48.895 61.2125 48.895C64.8575 48.895 68.1675 48.0975 71.07 46.505C73.9089 44.9548 76.2502 42.6317 77.8225 39.805C79.445 36.955 80.255 33.705 80.255 30.1225C80.255 26.4725 79.445 23.2225 77.8225 20.3725C76.2245 17.5422 73.8607 15.22 71.0025 13.6725V13.67ZM71.88 36.62C70.8675 38.545 69.3825 40.07 67.56 41.1325C65.6497 42.2298 63.483 42.8017 61.28 42.79C58.9825 42.79 56.8225 42.26 54.9975 41.1325C53.1075 40.0725 51.69 38.545 50.61 36.6225C49.5275 34.6975 49.055 32.51 49.055 30.055C49.055 27.6 49.595 25.4125 50.61 23.4875C51.69 21.5625 53.11 20.0375 54.9975 18.9775C56.9118 17.8879 59.0773 17.3165 61.28 17.32C63.575 17.32 65.735 17.85 67.56 18.9775C69.45 20.04 70.8675 21.565 71.88 23.4875C72.895 25.4125 73.435 27.6 73.435 30.055C73.435 32.51 72.96 34.6975 71.88 36.6225V36.62ZM103.678 17.4425C105.493 17.4425 107.1 17.705 108.495 18.3025C109.892 18.8975 111.22 19.76 112.408 20.9525C113.175 21.745 114.083 22.1425 115.2 22.1425C115.828 22.1425 116.387 22.01 116.805 21.68C117.855 21.0175 118.343 20.155 118.343 19.1625C118.343 18.5 118.132 17.905 117.643 17.375C113.942 13.335 109.265 11.2825 103.678 11.2825C99.9775 11.2825 96.6275 12.0775 93.6925 13.6675C90.8145 15.2148 88.4217 17.5297 86.78 20.355C85.1725 23.2025 84.335 26.4475 84.335 30.0875C84.335 33.5975 85.1725 36.7775 86.85 39.6875C88.525 42.5375 90.9 44.7875 93.9 46.445C96.905 48.1 100.257 48.895 104.025 48.895C109.195 48.895 113.455 47.37 116.875 44.39C117.435 43.8625 117.712 43.265 117.712 42.5375C117.712 41.61 117.295 40.815 116.387 40.0875C115.839 39.6928 115.178 39.4834 114.502 39.49C113.662 39.49 112.755 39.8225 111.847 40.4175C109.822 42.0075 107.24 42.8025 104.027 42.8025C101.582 42.8025 99.3475 42.2725 97.4625 41.1475C95.5621 40.1198 94.0078 38.5534 92.995 36.645C91.945 34.7225 91.3875 32.5375 91.3875 30.0875C91.3875 26.2475 92.505 23.2025 94.81 20.885C97.045 18.635 99.9775 17.4425 103.678 17.4425ZM152.95 43.5775L139.265 27.63L152.258 16.67C153.018 16.08 153.363 15.3575 153.363 14.3725C153.363 13.585 153.087 12.8625 152.462 12.2725C151.842 11.55 151.083 11.2225 150.045 11.2225C149.215 11.2225 148.455 11.485 147.835 12.075L130.695 26.645V3.2825C130.695 2.2975 130.348 1.5075 129.727 0.92C129.1 0.325 128.275 0 127.238 0C126.202 0 125.373 0.3275 124.75 0.92C124.128 1.51 123.783 2.295 123.783 3.2825V45.15C123.783 46.135 124.128 46.9225 124.75 47.5125C125.373 48.105 126.2 48.4325 127.238 48.4325C128.275 48.4325 129.105 48.105 129.727 47.5125C130.348 46.9225 130.695 46.135 130.695 45.15V34.9125L134.22 31.96L147.628 47.71C148.317 48.4975 149.148 48.8925 150.183 48.8925C151.013 48.8925 151.705 48.63 152.465 48.105C152.807 47.8489 153.093 47.5251 153.304 47.1538C153.515 46.7825 153.648 46.3716 153.693 45.9468C153.739 45.522 153.696 45.0924 153.568 44.6848C153.44 44.2771 153.23 43.9002 152.95 43.5775ZM34.63 0C33.615 0 32.8 0.33 32.1225 0.9225C31.4475 1.5825 31.1075 2.3725 31.1075 3.4275V27.0825H31.04C31.04 27.1475 31.04 27.215 31.1075 27.2825V29.0575C31.1075 33.54 30.97 36.44 26.9725 40.13C26.4975 40.525 25.955 40.855 25.415 41.185C23.515 42.305 21.4825 42.8325 19.18 42.8325C16.875 42.8325 14.775 42.305 12.945 41.1825C11.045 40.065 9.6225 38.5475 8.54 36.6375C7.455 34.7275 6.9125 32.5525 6.9125 30.18C6.9125 27.8075 7.455 25.6325 8.5375 23.7225C9.57572 21.8583 11.0986 20.3095 12.945 19.24C14.62 18.2693 16.4997 17.7058 18.4325 17.595L15.995 19.965C14.705 21.2175 14.705 23.3275 15.995 24.645C17.2825 25.895 19.45 25.895 20.805 24.645L28.8025 16.87C30.09 15.6175 30.09 13.5075 28.8025 12.19L20.7375 4.415C19.45 3.165 17.2825 3.165 15.925 4.415C14.6375 5.665 14.6375 7.775 15.925 9.0925L18.5 11.6H17.755C14.435 11.6 11.455 12.39 8.7425 14.0375C6.04344 15.6514 3.83986 17.9761 2.3725 20.7575C0.7475 23.525 0 26.6875 0 30.18C0 33.6725 0.8125 36.835 2.5075 39.735C4.15989 42.5602 6.54926 44.883 9.42 46.455C12.335 48.105 15.5875 48.895 19.1125 48.895C22.6375 48.895 25.8875 48.1025 28.735 46.455C31.5721 44.8614 33.9344 42.5422 35.58 39.735C37.275 36.9 38.0875 33.7375 38.0875 30.18V3.425C38.0875 2.37 37.7475 1.58 37.1375 0.92C36.5275 0.33 35.65 0 34.63 0Z" fill="white"/>
</svg>
