<svg width="191" height="221" viewBox="0 0 191 221" fill="none" xmlns="http://www.w3.org/2000/svg">
<path fill-rule="evenodd" clip-rule="evenodd" d="M97.7513 19.5469C55.031 20.6379 24.4967 43.5809 11.865 84.4418C-6.99033 145.434 25.2804 212.203 95.0775 213.786C236.224 217.013 191.444 12.9851 91.1589 6.66929L86.349 6.51562C84.551 6.51562 83.0912 5.05575 83.0912 3.25781C83.0912 1.45987 84.551 0 86.349 0L91.5738 0.169037C200.28 7.00736 244.706 223.744 94.9391 220.317C18.6572 218.565 -16.1337 143.543 7.13196 77.9723C21.8228 36.5735 54.0321 14.1223 97.7513 13.0005C99.5493 13.0005 101.009 14.4604 101.009 16.2583C101.009 18.0563 99.5493 19.5161 97.7513 19.5161V19.5469Z" fill="#2B2A29"/>
<path fill-rule="evenodd" clip-rule="evenodd" d="M127.348 157.921C128.808 168.263 127.118 172.428 128.67 182.001C129.161 183.431 128.408 184.998 126.979 185.49C125.55 185.981 123.983 185.228 123.491 183.799C121.678 172.904 123.46 169.493 122.123 159.566C121.678 158.121 122.477 156.584 123.921 156.123C125.366 155.678 126.902 156.477 127.364 157.921H127.348Z" fill="#2B2A29"/>
<path fill-rule="evenodd" clip-rule="evenodd" d="M77.7142 161.751C77.2532 168.666 76.5464 175.243 75.4707 182.097C75.5936 183.603 74.4872 184.94 72.9658 185.062C71.4599 185.185 70.1229 184.079 70 182.558C70.7684 175.473 71.7365 168.927 72.2282 161.751C72.2282 160.229 73.4576 159 74.9789 159C76.5003 159 77.7296 160.229 77.7296 161.751H77.7142Z" fill="#2B2A29"/>
<path fill-rule="evenodd" clip-rule="evenodd" d="M72.5815 184.85C55.0473 188.707 40.1331 194.193 21.9539 197.036C20.6372 197.174 19.4682 196.068 19.3473 194.546C19.2264 193.04 20.1938 191.703 21.524 191.565C39.7166 188.722 55.4906 182.529 72.5949 179.364C73.9251 179.364 75 180.593 75 182.114C75 183.636 73.9251 184.865 72.5949 184.865L72.5815 184.85Z" fill="#2B2A29"/>
<path fill-rule="evenodd" clip-rule="evenodd" d="M126.456 179.81C143.153 180.962 166.112 187.032 182.564 192.564C183.846 193.01 184.569 194.547 184.174 196.006C183.778 197.451 182.414 198.265 181.118 197.82C165.28 192.487 142.457 186.433 126.442 185.311C125.091 185.311 124 184.082 124 182.56C124 181.039 125.091 179.81 126.442 179.81H126.456Z" fill="#2B2A29"/>
<path fill-rule="evenodd" clip-rule="evenodd" d="M65.7572 187.032C66.2335 194.039 68.8459 194.577 75.9301 196.805C88.7309 200.847 115.608 200.263 127.533 193.348C130.79 191.458 132.281 186.632 133.556 183.421C134.064 181.992 135.646 181.254 137.076 181.761C138.505 182.268 139.242 183.851 138.735 185.28C136.86 189.998 135.124 195.269 130.406 198.035C116.975 205.918 92.4804 205.949 77.6666 202.906C66.9712 200.709 61.0241 197.85 60.2558 187.032C60.2558 185.511 61.4851 184.281 63.0065 184.281C64.5278 184.281 65.7572 185.511 65.7572 187.032Z" fill="#2B2A29"/>
<path fill-rule="evenodd" clip-rule="evenodd" d="M138.843 52.4171C128.578 31.733 106.972 36.0665 88.2545 29.7353C86.3029 29.0745 53.7401 28.5521 59.3645 34.8679C62.6377 38.556 70.2751 34.8064 55.2308 39.8929C52.2495 40.8918 55.4152 44.9487 56.2296 46.3625C61.9308 56.1051 49.8062 59.9776 56.4755 58.487C57.2438 58.318 58.2581 58.0721 59.5796 57.7648C61.3161 57.3499 56.6292 72.0715 68.8767 60.7153C69.7065 59.9469 72.0884 57.3345 78.0969 57.9953C83.0912 58.5485 91.0974 61.4682 97.3518 60.9765C104.62 60.4079 111.997 55.0756 118.036 53.6157C125.012 51.9099 131.052 55.8285 131.943 57.4421C132.02 57.5804 132.051 57.6879 132.051 57.7802C133.91 63.6811 135.477 81.6759 136.153 95.3372C138.873 82.6133 145.02 64.849 138.843 52.4017V52.4171Z" fill="#27335E"/>
<path fill-rule="evenodd" clip-rule="evenodd" d="M62.9757 95.2756C62.6838 81.6758 62.8067 68.8905 63.7133 64.0806C58.1505 66.7083 61.0241 56.7966 59.595 57.1347C58.2734 57.4574 57.2592 57.7033 56.4908 57.8723C54.3241 68.8597 57.7509 89.6974 62.9757 95.2756Z" fill="#27335E"/>
<path d="M62.5455 68.5216C60.2097 76.4203 62.0537 128.1 63.8209 139.763C64.7583 145.879 69.4913 149.706 76.2528 156.513C80.2022 160.493 87.7013 167.347 91.5123 169.145C94.8469 170.712 103.022 171.342 108.139 168.53C112.565 166.102 116.76 159.771 120.448 157.02C128.962 150.674 131.697 144.773 132.312 138.78C132.757 134.523 133.049 130.574 134.94 116.052C135.831 109.121 133.034 63.2968 129.745 60.8074" stroke="#2B2A29" stroke-width="3" stroke-linecap="round" stroke-linejoin="round"/>
<path d="M90.7593 152.426C92.2038 153.486 93.6483 154.316 95.5231 154.669C96.6142 154.884 98.0126 154.362 99.3187 154.239C100.656 154.101 102.085 154.838 103.268 154.623C104.912 154.346 106.403 153.655 107.924 152.871" stroke="#2B2A29" stroke-width="2" stroke-linecap="round" stroke-linejoin="round"/>
<path d="M58.9188 99.486C57.3207 98.3642 55.2922 93.2931 52.0959 96.1974C50.175 97.9493 52.6337 110.55 53.8631 112.64C55.492 115.375 55.7532 120.723 56.6753 121.169C58.6115 122.137 58.6576 122.091 60.7014 121.906" stroke="#2B2A29" stroke-width="3" stroke-linecap="round" stroke-linejoin="round"/>
<path d="M136.737 104.066C138.305 102.882 140.164 97.7498 143.453 100.562C145.435 102.252 143.376 114.93 142.208 117.051C140.671 119.832 140.564 125.18 139.673 125.672C137.767 126.701 137.721 126.655 135.662 126.548" stroke="#2B2A29" stroke-width="3" stroke-linecap="round" stroke-linejoin="round"/>
<path d="M67.0941 99.2095C71.0281 98.8407 75.0542 97.8265 78.9267 97.4423C82.9375 97.0274 86.7793 97.2733 90.1754 99.5629C97.9972 104.818 95.1696 119.663 92.127 127.638C91.0052 130.558 90.8976 133.954 91.1128 135.476C91.5891 138.933 95.5999 139.256 103.668 137.058" stroke="#2B2A29" stroke-width="2" stroke-linecap="round" stroke-linejoin="round"/>
<path d="M127.072 109.659C125.827 106.463 120.694 105.295 117.606 105.587C114.378 105.894 112.335 105.541 109.876 107.631C108.877 108.476 108.6 109.383 108.293 110.643" stroke="#2B2A29" stroke-width="2" stroke-linecap="round" stroke-linejoin="round"/>
<path d="M118.199 112.356C120.208 112.164 121.681 110.381 121.49 108.372C121.298 106.363 119.514 104.89 117.506 105.082C115.497 105.273 114.024 107.057 114.215 109.066C114.407 111.074 116.191 112.547 118.199 112.356Z" fill="#2B2A29"/>
<path d="M89.0228 108.599C88.0701 105.295 83.0758 103.666 79.9717 103.681C76.7292 103.697 74.7315 103.159 72.0884 105.003C71.0127 105.756 70.6439 106.632 70.229 107.846" stroke="#2B2A29" stroke-width="2" stroke-linecap="round" stroke-linejoin="round"/>
<path d="M79.9374 110.316C81.9552 110.309 83.5855 108.668 83.5786 106.65C83.5717 104.632 81.9304 103.002 79.9125 103.009C77.8947 103.016 76.2645 104.657 76.2713 106.675C76.2782 108.693 77.9195 110.323 79.9374 110.316Z" fill="#2B2A29"/>
<path d="M108.6 103.436C115.423 101.008 121.97 100.654 128.255 102.16" stroke="#2B2A29" stroke-width="2" stroke-linecap="round" stroke-linejoin="round"/>
<path d="M134.755 100.239C137.475 87.5153 143.622 69.7511 137.444 57.3038C127.179 36.6198 105.573 40.9533 86.8561 34.622C84.9045 33.9613 52.3417 33.4388 57.9661 39.7546C61.2393 43.4427 68.8767 39.6932 53.8324 44.7796C50.8511 45.7785 54.0168 49.8354 54.8312 51.2492C61.1932 62.1137 45.3805 65.6788 58.1812 62.6515C59.9177 62.2366 55.2308 76.9582 67.4783 65.602C68.3081 64.8336 70.69 62.2212 76.6985 62.882C81.6928 63.4352 89.699 66.355 95.9534 65.8632C103.222 65.2946 110.598 59.9623 116.637 58.5024C124.198 56.6584 130.637 61.4068 130.652 62.6669" stroke="#2B2A29" stroke-width="3" stroke-linecap="round" stroke-linejoin="round"/>
<path d="M55.1078 63.3889C52.9411 74.1919 56.3679 94.6915 61.5927 100.178" stroke="#2B2A29" stroke-width="3" stroke-linecap="round" stroke-linejoin="round"/>
<path d="M114.056 146.878C113.318 147.693 111.843 148.907 110.414 149.045C107.97 149.275 104.036 147.416 101.977 147.647C101.301 147.723 99.5646 148.338 98.7348 148.415C97.4132 148.538 96.9676 148.061 95.769 147.892C92.7109 147.462 89.5146 148.83 87.1788 149.675C86.1799 150.044 85.2887 149.46 84.6893 149.767" stroke="#2B2A29" stroke-width="2" stroke-linecap="round" stroke-linejoin="round"/>
</svg>
