<?xml version="1.0" encoding="utf-8"?>
<!-- Generator: Adobe Illustrator 24.2.2, SVG Export Plug-In . SVG Version: 6.00 Build 0)  -->
<svg version="1.1" id="Layer_1" xmlns="http://www.w3.org/2000/svg" xmlns:xlink="http://www.w3.org/1999/xlink" x="0px" y="0px"
     viewBox="0 0 841.89 595.28" style="enable-background:new 0 0 841.89 595.28;" xml:space="preserve">
<g>
	<path d="M503.27,226.3h-54.31c-15.45,0-27.98-12.53-27.98-27.97v-21.39c0-27.27-22.1-49.37-49.37-49.37
		c-27.27,0-49.37,22.1-49.37,49.37c0,27.27,22.1,49.37,49.37,49.37h21.39c15.45,0,27.97,12.53,27.97,27.98v51.01
		c0,15.45-12.52,27.97-27.97,27.97h-21.39c-27.27,0-49.37,22.1-49.37,49.37v35.71c0,27.27,22.1,49.37,49.37,49.37
		c27.27,0,49.37-22.1,49.37-49.37v-35.71v-21.39c0-15.45,12.53-27.98,27.98-27.98h54.31c9.09,0,16.46-7.37,16.46-16.46v-74.05
		C519.72,233.67,512.36,226.3,503.27,226.3"/>
</g>
</svg>
