<svg width="92" height="112" viewBox="0 0 92 112" fill="none" xmlns="http://www.w3.org/2000/svg">
<path fill-rule="evenodd" clip-rule="evenodd" d="M40.5233 80.489C37.3111 75.9732 38.347 69.6934 42.8376 66.4629L70.095 47.2627C74.5854 44.0323 80.8295 45.0741 84.042 49.5901C87.2543 54.1059 86.218 60.3857 81.7277 63.6162L54.4703 82.8164C49.98 86.0469 43.7356 85.0048 40.5233 80.489Z" fill="url(#paint0_linear)"/>
<path fill-rule="evenodd" clip-rule="evenodd" d="M13.4279 41.2469C19.0862 41.1931 23.7165 45.7627 23.77 51.453L24.235 100.967C24.2885 106.657 19.7447 111.314 14.0864 111.368C8.42801 111.421 3.7977 106.852 3.74427 101.162L3.27931 51.6478C3.22587 45.9573 7.76954 41.3007 13.4279 41.2469Z" fill="url(#paint1_linear)"/>
<path d="M81.9536 63.4535C86.4442 60.2231 87.4801 53.9433 84.2679 49.4275C81.0556 44.9117 74.8112 43.8696 70.3209 47.1001C65.8306 50.3305 64.7944 56.6103 68.0066 61.1261C71.2191 65.6422 77.4633 66.684 81.9536 63.4535Z" fill="url(#paint2_linear)"/>
<path fill-rule="evenodd" clip-rule="evenodd" d="M56.0692 42.2961C53.1269 46.9943 46.9544 48.4043 42.2827 45.4453L9.39878 22.5208C4.72702 19.5618 3.32504 13.3544 6.26737 8.65611C9.2097 3.95788 15.3821 2.54795 20.0539 5.50696L52.9378 28.4313C57.6095 31.3903 59.0115 37.5977 56.0692 42.2961Z" fill="url(#paint3_linear)"/>
<path d="M19.819 5.35776C15.1473 2.39878 8.97485 3.80873 6.03255 8.50699C3.09024 13.2052 4.49222 19.4127 9.16401 22.3717C13.8358 25.3308 20.0082 23.9207 22.9505 19.2225C25.8929 14.5242 24.4909 8.31678 19.819 5.35776Z" fill="url(#paint4_linear)"/>
<path d="M3.74687 101.448C3.80032 107.138 8.43063 111.708 14.089 111.654C19.7473 111.6 24.2909 106.944 24.2377 101.253C24.1841 95.5628 19.5538 90.9934 13.8955 91.047C8.23712 91.1008 3.69343 95.7573 3.74687 101.448Z" fill="url(#paint5_linear)"/>
<defs>
<linearGradient id="paint0_linear" x1="46.5324" y1="88.9367" x2="89.8463" y2="58.1258" gradientUnits="userSpaceOnUse">
<stop offset="0.0572917" stop-color="#0098C0"/>
<stop offset="0.729167" stop-color="#70E99C"/>
</linearGradient>
<linearGradient id="paint1_linear" x1="3.18256" y1="41.3443" x2="3.84578" y2="111.179" gradientUnits="userSpaceOnUse">
<stop offset="0.0572917" stop-color="#0098C0"/>
<stop offset="0.729167" stop-color="#70E99C"/>
</linearGradient>
<linearGradient id="paint2_linear" x1="84.2679" y1="49.4275" x2="67.9445" y2="61.039" gradientUnits="userSpaceOnUse">
<stop stop-color="#70E99C"/>
<stop offset="0.817708" stop-color="#0098C0"/>
</linearGradient>
<linearGradient id="paint3_linear" x1="62.3368" y1="32.2882" x2="11.6401" y2="0.53892" gradientUnits="userSpaceOnUse">
<stop offset="0.0572917" stop-color="#0098C0"/>
<stop offset="0.729167" stop-color="#70E99C"/>
</linearGradient>
<linearGradient id="paint4_linear" x1="6.0325" y1="8.50696" x2="23.0047" y2="19.1359" gradientUnits="userSpaceOnUse">
<stop stop-color="#70E99C"/>
<stop offset="0.817708" stop-color="#0098C0"/>
</linearGradient>
<linearGradient id="paint5_linear" x1="14.089" y1="111.654" x2="13.8933" y2="91.047" gradientUnits="userSpaceOnUse">
<stop stop-color="#70E99C"/>
<stop offset="0.817708" stop-color="#0098C0"/>
</linearGradient>
</defs>
</svg>
