<svg width="340" height="49" viewBox="0 0 340 49" fill="none" xmlns="http://www.w3.org/2000/svg">
<path fill-rule="evenodd" clip-rule="evenodd" d="M327.023 0H337.476C339.788 0 340.744 2.04481 339.352 4.01423L309.615 46.0675C308.297 47.9333 306.083 47.8108 304.95 45.815L299.661 36.4918L292.5 46.224C291.144 48.0652 288.94 47.8768 287.878 45.8244L275.149 21.2509C274.065 19.1571 275.173 17.1538 277.415 17.1538H287.893C289.71 17.1538 291.837 18.4334 292.778 20.0919L299.882 32.6133L321.944 2.63281C323.04 1.14585 325.25 0 327.025 0L327.023 0ZM307.961 44.7389L337.699 2.68369C337.794 2.55828 337.867 2.41821 337.917 2.26908C337.774 2.22362 337.626 2.20321 337.476 2.20877H327.023C325.886 2.20877 324.277 3.04177 323.574 3.99538L301.028 34.6336L306.722 44.6729C307.096 45.3325 307.524 45.3552 307.961 44.7389ZM290.87 44.8595L298.514 34.4715L291.006 21.234C290.439 20.2351 288.985 19.3607 287.893 19.3607H277.417C276.751 19.3607 276.639 19.5623 276.964 20.1842L289.691 44.7577C290.035 45.423 290.43 45.4588 290.87 44.8595ZM235.488 11.3397V8.06804H261.702V11.3397H250.546V40.7831H246.644V11.3397H235.49H235.488ZM213.49 22.1141L223.864 22.6795C228.363 22.9433 231.302 25.8211 231.302 29.4415V33.6724C231.302 37.8167 227.628 40.8717 223.405 40.8717H213.307C208.99 40.8717 205.549 37.992 205.549 33.891V31.0566H209.633V33.7591C209.633 35.9415 211.333 37.468 214.223 37.468H222.946C225.38 37.468 227.354 35.6777 227.354 33.6291V29.4415C227.354 27.653 225.975 26.1264 223.68 25.9964L213.169 25.4291C208.439 25.1653 205.594 22.1122 205.594 18.6238V14.2609C205.594 11.0344 208.945 7.80608 213.169 7.80608H222.256C227.443 7.80608 230.658 10.7272 230.658 14.1308V16.8353H226.71V14.7867C226.71 12.4743 225.15 11.1211 222.256 11.1211H213.626C211.148 11.1211 209.587 12.7362 209.587 14.5681V18.5371C209.587 20.499 211.057 21.9822 213.49 22.1141ZM194.291 40.7831V8.06992H198.192V40.7831H194.291ZM170.227 8.06615V37.5095H187.761V40.7812H166.322V8.06615H170.225H170.227ZM133.994 11.3397V8.06804H160.206V11.3397H149.052V40.7831H145.152V11.3397H133.996H133.994ZM128.75 19.3663C128.75 23.5539 125.262 26.5184 123.103 26.7352C123.103 26.7352 125.307 27.261 126.639 31.8839L129.208 40.7831H124.893L122.598 31.8406C121.956 29.3981 120.118 27.5229 117.366 27.5229H107.036V40.7831H103.135V8.06615H119.11C125.583 8.06615 128.75 11.2059 128.75 16.1794V19.3644V19.3663ZM107.036 24.2512H119.521C122.965 24.2512 124.803 22.4608 124.803 19.2777V16.268C124.803 13.083 123.471 11.3397 119.11 11.3397H107.036V24.2493V24.2512ZM85.9104 7.80608C91.1899 7.80608 95.5967 11.645 95.5967 16.7486V32.1025C95.5967 37.5981 91.511 40.7831 85.9104 40.7831H78.2453C72.6448 40.7831 68.5572 37.5981 68.5572 32.1025V16.7486C68.5572 11.645 72.9659 7.80608 78.2453 7.80608H85.9104ZM91.6942 31.7972V16.7919C91.6942 13.5202 89.216 11.1645 85.7726 11.1645H78.3813C74.9398 11.1645 72.4597 13.5202 72.4597 16.7919V31.7972C72.4597 35.4609 75.2156 37.468 78.8876 37.468H85.2682C88.9402 37.468 91.6942 35.4609 91.6942 31.7953V31.7972ZM57.0709 22.4627V8.06615H60.9733V40.7831H57.0709V25.7344H36.9183V40.7831H33.0178V8.06615H36.9183V22.4608H57.0728L57.0709 22.4627ZM7.94089 22.1141L18.3166 22.6795C22.8159 22.9433 25.7531 25.8211 25.7531 29.4415V33.6724C25.7531 37.8167 22.0811 40.8717 17.8576 40.8717H7.75767C3.44344 40.8698 0 37.9901 0 33.8892V31.0547H4.08567V33.7572C4.08567 35.9396 5.78567 37.4662 8.67567 37.4662H17.3986C19.8314 37.4662 21.8053 35.6758 21.8053 33.6272V29.4396C21.8053 27.6511 20.4264 26.1245 18.1333 25.9945L7.62167 25.4272C2.89189 25.1634 0.0472222 22.1103 0.0472222 18.6219V14.2609C0.0472222 11.0344 3.39622 7.80608 7.62167 7.80608H16.7091C21.896 7.80608 25.1109 10.7272 25.1109 14.1308V16.8353H21.1631V14.7867C21.1631 12.4743 19.601 11.1211 16.7091 11.1211H8.07878C5.60056 11.1211 4.04033 12.7362 4.04033 14.5681V18.5371C4.04033 20.499 5.50989 21.9822 7.94089 22.1141Z" fill="white"/>
</svg>
