<svg width="86" height="102" viewBox="0 0 86 102" fill="none" xmlns="http://www.w3.org/2000/svg">
<path d="M77.937 98.1298H7.97913C6.97614 98.1232 6.01624 97.721 5.30779 97.0106C4.59934 96.3002 4.19953 95.3389 4.19513 94.3353V44.9387C4.25512 39.1921 6.19812 33.624 9.72595 29.0889C13.2538 24.5538 18.1715 21.3023 23.7243 19.8335C29.2772 18.3646 35.1583 18.7596 40.4652 20.9578C45.7721 23.1559 50.2114 27.0358 53.1019 32.0019C54.0164 33.5802 56.2146 38.5333 56.567 39.3224V39.3896C56.7964 39.8541 57.0145 40.3243 57.2215 40.8L70.218 68.7639L81.2763 92.6227C81.5641 93.1626 81.714 93.7653 81.7126 94.3773C81.7115 94.8719 81.6129 95.3614 81.4225 95.8178C81.232 96.2743 80.9535 96.6886 80.6028 97.0372C80.2521 97.3858 79.8361 97.6617 79.3786 97.8492C78.9212 98.0367 78.4313 98.1321 77.937 98.1298Z" fill="url(#paint0_linear)"/>
<path opacity="0.7" d="M7.94557 4.02959C6.94926 4.03843 5.99665 4.44008 5.29449 5.14736C4.59233 5.85463 4.1973 6.81046 4.19513 7.80737V94.3353C4.19069 94.8331 4.28486 95.3269 4.4722 95.7881C4.65953 96.2493 4.93632 96.6688 5.28658 97.0224C5.63684 97.3759 6.05364 97.6566 6.5129 97.8481C6.97216 98.0397 7.46479 98.1383 7.96235 98.1382C8.61496 98.1447 9.25862 97.9859 9.83337 97.6765L61.7186 73.8765C62.1997 73.6694 62.6723 73.4512 63.1366 73.2217C65.6163 72.0128 67.9523 70.5288 70.1005 68.7975C75.9952 64.074 80.2734 57.6309 82.3409 50.3632C84.4085 43.0955 84.1627 35.364 81.6377 28.2425C79.1127 21.121 74.4338 14.963 68.251 10.6239C62.0682 6.28482 54.6883 3.98001 47.1364 4.02959H7.94557Z" fill="url(#paint1_linear)"/>
<defs>
<linearGradient id="paint0_linear" x1="7.80847" y1="29.5926" x2="32.3239" y2="81.575" gradientUnits="userSpaceOnUse">
<stop stop-color="#2491F6" stop-opacity="0"/>
<stop offset="1" stop-color="#2491F6"/>
</linearGradient>
<linearGradient id="paint1_linear" x1="63.682" y1="10.4637" x2="-13.3227" y2="51.369" gradientUnits="userSpaceOnUse">
<stop stop-color="#39DDBF"/>
<stop offset="1" stop-color="#35DAC5"/>
</linearGradient>
</defs>
</svg>
