<svg width="95" height="97" viewBox="0 0 95 97" fill="none" xmlns="http://www.w3.org/2000/svg">
<g clip-path="url(#clip0)">
<mask id="mask0" mask-type="alpha" maskUnits="userSpaceOnUse" x="0" y="0" width="95" height="97">
<path d="M31.1764 94.1193L1.00846 46.0347C0.548082 45.3008 0.292452 44.4567 0.268173 43.5903C0.243893 42.7238 0.451851 41.8667 0.870405 41.108C1.28896 40.3494 1.90281 39.717 2.64809 39.2767C3.39336 38.8363 4.24283 38.6041 5.10807 38.6042H35.2614L35.2779 7.27683C35.2808 5.34715 36.0475 3.4974 37.4099 2.13325C38.7723 0.769105 40.6191 0.00193635 42.5454 1.34966e-07H89.543C90.4081 -0.000204294 91.2575 0.231827 92.0027 0.671955C92.748 1.11208 93.3619 1.74423 93.7806 2.50263C94.1993 3.26102 94.4076 4.11797 94.3836 4.9843C94.3596 5.85064 94.1044 6.69472 93.6444 7.42874L39.3793 94.1138C38.9442 94.8099 38.3397 95.3838 37.6226 95.7819C36.9055 96.18 36.0992 96.3891 35.2794 96.3896C34.4596 96.3902 33.653 96.1821 32.9354 95.785C32.2177 95.3879 31.6125 94.8148 31.1764 94.1193Z" fill="white"/>
</mask>
<g mask="url(#mask0)">
<path d="M31.1764 94.1193L1.00846 46.0347C0.548082 45.3008 0.292452 44.4567 0.268173 43.5903C0.243893 42.7238 0.451851 41.8667 0.870405 41.108C1.28896 40.3494 1.90281 39.717 2.64809 39.2767C3.39336 38.8363 4.24283 38.6041 5.10807 38.6042H35.2614L35.2779 7.27683C35.2808 5.34715 36.0475 3.4974 37.4099 2.13325C38.7723 0.769105 40.6191 0.00193635 42.5454 1.34966e-07H89.543C90.4081 -0.000204294 91.2575 0.231827 92.0027 0.671955C92.748 1.11208 93.3619 1.74423 93.7806 2.50263C94.1993 3.26102 94.4076 4.11797 94.3836 4.9843C94.3596 5.85064 94.1044 6.69472 93.6444 7.42874L39.3793 94.1138C38.9442 94.8099 38.3397 95.3838 37.6226 95.7819C36.9055 96.18 36.0992 96.3891 35.2794 96.3896C34.4596 96.3902 33.653 96.1821 32.9354 95.785C32.2177 95.3879 31.6125 94.8148 31.1764 94.1193Z" fill="#6CEECB"/>
<path fill-rule="evenodd" clip-rule="evenodd" d="M0.37085 38.6023H35.2815V99.683H0.37085V38.6023Z" fill="#35BC98"/>
<path fill-rule="evenodd" clip-rule="evenodd" d="M23.6587 38.6023H35.2815V99.683L23.6587 38.6023Z" fill="#1C9172"/>
</g>
</g>
<defs>
<clipPath id="clip0">
<rect width="95" height="97" fill="white"/>
</clipPath>
</defs>
</svg>
